<svg width="120" height="120" viewBox="0 0 120 119" fill="none" xmlns="http://www.w3.org/2000/svg">
    <g id="html">
        <path d="M22.1325 102.004L13.7063 7.5H106.294L97.8563 101.989L59.9438 112.5L22.1325 102.004Z" fill="#E44F26"/>
        <path d="M60 104.468L90.6375 95.9738L97.845 15.2288H60V104.468Z" fill="#F1662A"/>
        <path d="M60 50.2762H44.6625L43.605 38.4074H60V26.8162H30.9375L31.215 29.9287L34.0613 61.8674H60V50.2762ZM60 80.3774L59.9475 80.3924L47.04 76.9087L46.215 67.6649H34.5787L36.2025 85.8599L59.9475 92.4524L60 92.4374V80.3774Z"
              fill="#EBEBEB"/>
        <path d="M59.9587 50.2762V61.8674H74.2312L72.8887 76.9012L59.9587 80.3887V92.4487L83.7225 85.8599L83.895 83.9024L86.6175 53.3887L86.9025 50.2762H59.9587ZM59.9587 26.8162V38.4074H87.9562L88.1887 35.8049L88.7175 29.9287L88.995 26.8162H59.9587Z"
              fill="white"/>
    </g>
    <g id="css">
        <path d="M22.1325 101.154L13.71 7.4375H106.29L97.8562 101.139L59.9437 111.562L22.1325 101.154Z" fill="#1572B6"/>
        <path d="M60 103.597L90.6375 95.1739L97.845 15.1018H60V103.597Z" fill="#33A9DC"/>
        <path d="M60 49.054H75.3375L76.395 37.2842H60V25.7896H89.0625L88.785 28.8724L85.9387 60.5487H60V49.054Z"
              fill="white"/>
        <path d="M60.0711 78.9045L60.0186 78.9193L47.1112 75.4609L46.2862 66.2942H34.6499L36.2737 84.3413L60.0149 90.8788L60.0711 90.864V78.9045Z"
              fill="#EBEBEB"/>
        <path d="M74.3513 60.0615L72.9563 75.4534L60.03 78.9119V90.8714L83.79 84.3412L83.9663 82.4001L85.98 60.0615H74.3513Z"
              fill="white"/>
        <path d="M60.0411 25.7896V37.2842H32.0436L31.8111 34.6997L31.2824 28.8724L31.0049 25.7896H60.0411ZM59.9999 49.054V60.5487H47.2536L47.0211 57.9642L46.4961 52.1369L46.2186 49.054H59.9999Z"
              fill="#EBEBEB"/>
    </g>
    <g id="js">
        <g id="vscode-icons:file-type-js-official">
            <g id="Group 11">
                <path id="Vector" d="M7.5 7.5H112.5V112.5H7.5V7.5Z" fill="#F5DE19"/>
                <path id="Vector_2"
                      d="M78.0338 89.5312C78.9284 91.3485 80.3183 92.8759 82.0434 93.9375C83.7684 94.9991 85.7584 95.5515 87.7838 95.5313C91.8713 95.5313 94.485 93.4875 94.485 90.6562C94.485 87.2812 91.8 86.0738 87.3 84.105L84.8325 83.0475C77.7075 80.0138 72.9825 76.215 72.9825 68.1825C72.9825 60.7838 78.6075 55.1475 87.4313 55.1475C90.2877 54.9412 93.1416 55.5805 95.637 56.9856C98.1324 58.3907 100.159 60.4994 101.464 63.0488L93.75 67.98C93.2476 66.716 92.3728 65.6345 91.2416 64.879C90.1105 64.1236 88.7764 63.7298 87.4163 63.75C86.8229 63.6906 86.2236 63.7555 85.6567 63.9404C85.0897 64.1254 84.5675 64.4265 84.1234 64.8244C83.6792 65.2224 83.3228 65.7085 83.0769 66.2518C82.831 66.7951 82.7009 67.3837 82.695 67.98C82.695 70.9388 84.5288 72.1388 88.7625 73.98L91.23 75.0375C99.615 78.6338 104.355 82.2975 104.355 90.5363C104.355 99.42 97.3763 104.287 88.005 104.287C84.3537 104.52 80.713 103.691 77.5223 101.901C74.3317 100.11 71.7274 97.4342 70.0238 94.1963L78.0338 89.5312ZM43.1775 90.3863C44.7263 93.135 46.1363 95.46 49.5263 95.46C52.7663 95.46 54.8138 94.1925 54.8138 89.2612V55.71H64.68V89.3925C64.68 99.6075 58.68 104.257 49.9463 104.257C46.8591 104.426 43.7931 103.657 41.1513 102.051C38.5096 100.444 36.4157 98.0761 35.145 95.2575L43.1775 90.3863Z"
                      fill="black"/>
            </g>
        </g>
    </g>

    <g id="react">
        <g clip-path="url(#clip0_15_2269)">
            <path d="M92.9055 32.7027C91.703 32.2886 90.4903 31.905 89.2686 31.5522C89.4738 30.7106 89.6627 29.8791 89.8304 29.0622C92.5837 15.6483 90.7838 4.84172 84.6359 1.28369C78.7415 -2.12728 69.1015 1.42943 59.3658 9.93336C58.4063 10.773 57.4681 11.6368 56.552 12.5239C55.9388 11.934 55.3148 11.3555 54.6802 10.7888C44.4766 1.6961 34.2492 -2.13614 28.108 1.43209C22.2188 4.85368 20.4749 15.0126 22.9537 27.7253C23.2003 28.9844 23.4787 30.2369 23.7887 31.4818C22.341 31.8947 20.9441 32.3341 19.6072 32.8019C7.64431 36.9881 0.00463867 43.5482 0.00463867 50.3528C0.00463867 57.3808 8.20617 64.4299 20.666 68.7043C21.6762 69.0494 22.6947 69.3692 23.7208 69.6633C23.3875 71.0041 23.0917 72.354 22.8336 73.7113C20.4705 86.2034 22.3159 96.1222 28.1892 99.5221C34.2554 103.033 44.4369 99.4247 54.3505 90.7267C55.1544 90.0196 55.9406 89.2924 56.7083 88.5459C57.7003 89.5065 58.7188 90.4392 59.7626 91.3429C69.3659 99.6364 78.85 102.985 84.7176 99.5762C90.7781 96.0549 92.7479 85.3994 90.1906 72.4355C89.9891 71.4199 89.7632 70.4093 89.5131 69.4046C90.2281 69.192 90.9299 68.9732 91.614 68.7455C104.567 64.4384 112.995 57.4747 112.995 50.3528C112.995 43.5234 105.109 36.919 92.9055 32.7027ZM90.0961 64.1473C89.4782 64.3524 88.8444 64.5504 88.1982 64.7431C86.7682 60.1995 84.8385 55.3683 82.4768 50.3763C84.7304 45.5035 86.5859 40.7339 87.9758 36.2199C89.1317 36.5557 90.2533 36.9097 91.3346 37.2831C101.791 40.8961 108.168 46.2371 108.168 50.3528C108.168 54.7366 101.28 60.4276 90.0961 64.1473ZM85.4556 73.3764C86.5864 79.1086 86.7475 84.2915 85.9985 88.3435C85.3258 91.9843 83.9726 94.4114 82.2989 95.3838C78.7384 97.4525 71.1234 94.7636 62.9109 87.6706C61.94 86.8304 60.9926 85.9633 60.0698 85.0703C63.2538 81.5756 66.4356 77.513 69.5411 73.0008C75.0035 72.5144 80.164 71.7188 84.8438 70.633C85.0693 71.5425 85.2732 72.4572 85.4556 73.3764ZM38.5256 95.0263C35.0467 96.2591 32.2758 96.2946 30.6008 95.3253C27.0368 93.2623 25.5551 85.298 27.5761 74.615C27.8164 73.3526 28.0914 72.0972 28.401 70.8501C33.0292 71.8778 38.1522 72.6167 43.6274 73.0623C46.7541 77.4776 50.0277 81.5357 53.327 85.0893C52.6258 85.7702 51.9081 86.4337 51.1744 87.0792C46.7903 90.9252 42.3973 93.6539 38.5256 95.0263ZM22.2276 64.1203C16.718 62.2301 12.1679 59.7738 9.04919 57.0933C6.24649 54.6848 4.8319 52.2931 4.8319 50.3528C4.8319 46.2234 10.9656 40.9563 21.1961 37.3766C22.4377 36.9424 23.7371 36.5327 25.0855 36.1482C26.4996 40.764 28.3543 45.5903 30.5924 50.4707C28.3251 55.4232 26.444 60.3266 25.0162 64.997C24.0796 64.7277 23.1498 64.4354 22.2276 64.1203ZM27.6909 26.7946C25.5674 15.903 26.9776 7.687 30.5267 5.62491C34.3066 3.42861 42.6652 6.56005 51.4754 14.4115C52.0499 14.9246 52.6151 15.4482 53.1707 15.9818C49.8878 19.5199 46.6442 23.548 43.5453 27.9371C38.2312 28.4314 33.1444 29.2252 28.4677 30.2888C28.1795 29.131 27.9205 27.966 27.6909 26.795V26.7946ZM76.43 38.8738C75.3254 36.9588 74.1797 35.0679 72.9939 33.2023C76.599 33.6599 80.0532 34.2673 83.2968 35.0097C82.3232 38.1425 81.1094 41.4175 79.6807 44.7753C78.6364 42.7866 77.5526 40.8191 76.43 38.8738ZM56.5542 19.4442C58.7805 21.8651 61.0103 24.5677 63.2035 27.5003C58.7545 27.2894 54.298 27.2885 49.849 27.4976C52.0443 24.5921 54.2931 21.893 56.5542 19.4442ZM36.5509 38.9071C35.4424 40.8366 34.3788 42.7919 33.3612 44.7713C31.9558 41.4254 30.7531 38.1354 29.7711 34.9583C32.9948 34.2345 36.4326 33.6427 40.0148 33.1935C38.8158 35.0704 37.6608 36.9753 36.5509 38.9066V38.9071ZM40.1176 67.8569C36.4168 67.4422 32.9273 66.881 29.7044 66.1766C30.7019 62.9429 31.9311 59.5828 33.3669 56.1652C34.3886 58.1461 35.4566 60.1025 36.5699 62.033C37.7148 64.0175 38.9003 65.9613 40.1176 67.8569ZM56.6875 81.6026C54.3995 79.1255 52.1176 76.3847 49.8891 73.4371C52.0527 73.5222 54.2582 73.5656 56.5 73.5656C58.803 73.5656 61.0796 73.5137 63.3204 73.4136C61.1202 76.4144 58.8988 79.1591 56.6875 81.6026ZM79.7262 55.9907C81.2365 59.4459 82.5094 62.7883 83.5202 65.9667C80.2443 66.7171 76.7072 67.3213 72.9803 67.77C74.1745 65.8699 75.331 63.9461 76.449 61.9998C77.5857 60.0214 78.6783 58.0179 79.7262 55.9907ZM72.2679 59.5793C70.5563 62.5634 68.7486 65.4908 66.8474 68.357C63.4037 68.6018 59.9523 68.7234 56.5 68.7216C52.9836 68.7216 49.5634 68.6117 46.2699 68.3973C44.3191 65.5378 42.4769 62.6052 40.747 59.6059H40.7475C39.0258 56.6224 37.4176 53.5744 35.9264 50.4685C37.4138 47.3618 39.0171 44.3124 40.7329 41.3266L40.7325 41.3271C42.4476 38.3406 44.2752 35.4206 46.2112 32.5733C49.5713 32.3181 53.0171 32.1853 56.4995 32.1853H56.5C59.9983 32.1853 63.4484 32.3195 66.8077 32.5764C68.7242 35.4194 70.5401 38.3294 72.252 41.3009C73.9735 44.2801 75.598 47.3146 77.123 50.3998C75.6137 53.5165 73.9943 56.5783 72.2679 59.5793ZM82.2252 5.4805C86.0086 7.67061 87.4801 16.5023 85.1029 28.0841C84.9511 28.823 84.7807 29.5756 84.5953 30.3389C79.9071 29.2527 74.8168 28.4452 69.4873 27.9433C66.3827 23.5059 63.1655 19.4717 59.936 15.9792C60.7824 15.1603 61.6489 14.3627 62.5348 13.5871C70.8767 6.30135 78.673 3.42462 82.2252 5.4805ZM56.5 40.2263C62.0723 40.2263 66.5897 44.7602 66.5897 50.3528C66.5897 55.9455 62.0723 60.4794 56.5 60.4794C50.9277 60.4794 46.4102 55.9455 46.4102 50.3528C46.4102 44.7602 50.9277 40.2263 56.5 40.2263Z"
                  fill="#00D8FF"/>
        </g>
        <defs>
            <clipPath id="clip0_15_2269">
                <rect width="113" height="101" fill="white"/>
            </clipPath>
        </defs>
    </g>
    <g id="github">
        <path fill-rule="evenodd" clip-rule="evenodd"
              d="M44 0C19.69 0 0 19.69 0 44C0 63.47 12.595 79.915 30.085 85.745C32.285 86.13 33.11 84.81 33.11 83.655C33.11 82.61 33.055 79.145 33.055 75.46C22 77.495 19.14 72.765 18.26 70.29C17.765 69.025 15.62 65.12 13.75 64.075C12.21 63.25 10.01 61.215 13.695 61.16C17.16 61.105 19.635 64.35 20.46 65.67C24.42 72.325 30.745 70.455 33.275 69.3C33.66 66.44 34.815 64.515 36.08 63.415C26.29 62.315 16.06 58.52 16.06 41.69C16.06 36.905 17.765 32.945 20.57 29.865C20.13 28.765 18.59 24.255 21.01 18.205C21.01 18.205 24.695 17.05 33.11 22.715C36.63 21.725 40.37 21.23 44.11 21.23C47.85 21.23 51.59 21.725 55.11 22.715C63.525 16.995 67.21 18.205 67.21 18.205C69.63 24.255 68.09 28.765 67.65 29.865C70.455 32.945 72.16 36.85 72.16 41.69C72.16 58.575 61.875 62.315 52.085 63.415C53.68 64.79 55.055 67.43 55.055 71.555C55.055 77.44 55 82.17 55 83.655C55 84.81 55.825 86.185 58.025 85.745C66.7597 82.796 74.3497 77.1822 79.7268 69.6937C85.1039 62.2052 87.9974 53.219 88 44C88 19.69 68.31 0 44 0Z"
              fill="black"/>
    </g>
    <g id="git">
        <g clip-path="url(#clip0_15_2267)">
            <path d="M103.02 47.8219L57.1758 1.98038C54.5372 -0.6598 50.2552 -0.6598 47.6134 1.98038L38.0937 11.5001L50.1699 23.5763C52.9762 22.6281 56.1943 23.2642 58.4313 25.5012C60.6789 27.7525 61.3106 30.9981 60.3393 33.8134L71.9775 45.452C74.7932 44.482 78.0421 45.1095 80.291 47.3621C83.434 50.5039 83.434 55.596 80.291 58.7399C77.1471 61.8841 72.055 61.8841 68.9095 58.7399C66.5454 56.3733 65.9613 52.9013 67.1582 49.9888L56.3046 39.1352L56.3034 67.6973C57.0902 68.0863 57.8088 68.6002 58.4313 69.2189C61.5743 72.3607 61.5743 77.4532 58.4313 80.5995C55.2874 83.7422 50.1929 83.7422 47.0535 80.5995C43.9105 77.4532 43.9105 72.3611 47.0535 69.2193C47.8067 68.4658 48.7019 67.869 49.6871 67.4635V38.6352C48.7004 38.2324 47.8048 37.6353 47.0535 36.8793C44.6722 34.5013 44.0996 31.0071 45.3198 28.0831L33.4154 16.1775L1.98105 47.6099C-0.660352 50.2525 -0.660352 54.5349 1.98105 57.1755L47.8259 103.018C50.4652 105.658 54.7464 105.658 57.3891 103.018L103.019 57.3884C105.66 54.747 105.66 50.4621 103.019 47.8219"
                  fill="#DE4C36"/>
        </g>
        <defs>
            <clipPath id="clip0_15_2267">
                <rect width="105" height="105" fill="white"/>
            </clipPath>
        </defs>
    </g>

    <g id="styled components">
        <g clip-path="url(#clip0_1_3263)">
            <path d="M68.7672 118.279C68.9472 117.872 69.4014 117.589 69.7314 117.246C74.7665 111.967 79.8444 106.735 84.811 101.391C86.3651 99.9558 87.5661 98.1804 88.3199 96.2036C89.0737 94.2269 89.36 92.1026 89.1562 89.9968C89.0003 89.0951 88.7957 88.2025 88.5434 87.3229C87.1893 88.6084 85.9294 89.7783 84.661 90.9567C82.6898 92.7908 80.7272 94.6334 78.7389 96.4461C77.5664 97.6415 76.0589 98.4531 74.4155 98.7737C72.772 99.0943 71.07 98.9087 69.5342 98.2416C67.9796 97.6705 66.6269 96.6553 65.6442 95.3221C64.6614 93.9889 64.0919 92.3965 64.0063 90.7425C63.9603 90.5297 63.8987 90.3206 63.8221 90.1168C62.3094 91.4024 60.861 92.5851 59.4254 93.8021L29.5875 119.085C29.3818 119.261 29.159 119.479 28.9662 119.65H68.7458L68.6858 119.612C68.4715 119.462 68.5829 118.673 68.7672 118.279Z"
                  fill="#FFCEBF"/>
            <path d="M27.1436 118.279C27.4974 117.818 27.9245 117.418 28.4077 117.096L69.7 82.0642C72.5168 79.6731 75.3207 77.2691 78.1118 74.8522C78.4567 74.6118 78.727 74.2791 78.8918 73.8924C79.5594 70.9831 79.654 67.9717 79.1703 65.0263C78.7418 65.3262 78.5104 65.4548 78.3132 65.6648C74.9322 68.6901 71.5683 71.7412 68.1702 74.7494C67.0445 75.8824 65.5885 76.6292 64.0116 76.8825C62.4346 77.1359 60.818 76.8826 59.3941 76.1592C57.9414 75.4734 56.7256 74.3709 55.9014 72.992C55.0773 71.6131 54.682 70.0201 54.766 68.4159V67.0275C54.1447 67.4817 53.6905 67.7859 53.2662 68.1287C36.7396 81.3615 20.2159 94.5842 3.69496 107.797C2.94933 108.393 2.05801 109.721 1.08098 108.431C0.103957 107.141 1.59092 106.61 2.34083 106.01C19.953 91.8774 37.5738 77.7576 55.2031 63.6507C58.0742 61.3496 58.2628 60.3854 56.3944 56.7301L55.2803 57.7757C52.2249 60.6168 49.1353 63.4193 46.1271 66.3075C44.8931 67.4978 43.3476 68.3148 41.6691 68.6641C39.9906 69.0135 38.2476 68.8809 36.6412 68.2818C35.0348 67.6827 33.6306 66.6415 32.5908 65.2784C31.5509 63.9153 30.9178 62.2858 30.7646 60.5782C30.1947 61.0067 29.7019 61.3196 29.2348 61.6838L3.09503 81.9443C2.64419 82.3864 2.13005 82.7591 1.5695 83.0498C1.14643 83.1777 0.692134 83.155 0.283936 82.9856V119.671H27.0922C26.9925 119.451 26.9453 119.21 26.9542 118.969C26.9631 118.727 27.028 118.491 27.1436 118.279Z"
                  fill="#FFCEBF"/>
            <path d="M99.5654 1.82096C98.8369 4.20782 98.1298 6.59897 97.4913 9.01154C96.9016 10.7164 96.9702 12.5802 97.6837 14.2371C98.3972 15.8941 99.7041 17.2246 101.348 17.9676C106.376 20.6107 112.043 21.798 117.709 21.3958V2.22806C117.646 1.80781 117.669 1.37914 117.777 0.968207C117.897 0.73576 118.049 0.520916 118.227 0.329712H99.5482C99.8353 0.663958 99.7368 1.25103 99.5654 1.82096Z"
                  fill="#FF6196"/>
            <path d="M62.0511 42.9976C61.9623 45.137 61.2139 47.1966 59.9085 48.894C55.242 54.9179 49.8829 60.3719 43.9418 65.1435C42.9837 66.0304 41.7694 66.591 40.473 66.745C39.1766 66.8989 37.8647 66.6383 36.7255 66.0005C35.5917 65.5161 34.6357 64.6925 33.9889 63.6428C33.342 62.5932 33.0361 61.369 33.1131 60.1384C33.2503 58.627 33.8779 57.202 34.9 56.0803C41.5435 49.7455 48.7415 44.019 56.4075 38.9695C56.9096 38.5758 57.5227 38.3499 58.1602 38.3237C58.7977 38.2976 59.4273 38.4725 59.9599 38.8238C60.66 39.2585 61.2259 39.8786 61.5951 40.6153C61.9642 41.352 62.122 42.1766 62.0511 42.9976Z"
                  fill="#FF87AF"/>
            <path d="M56.9127 68.97C56.8132 68.0228 56.9348 67.0654 57.2679 66.1731C57.6011 65.2809 58.1366 64.478 58.8325 63.8277C65.3374 57.8281 72.3164 52.3638 79.7014 47.4883C79.9243 47.3468 80.13 47.2054 80.3742 47.0597C81.0193 46.594 81.8009 46.356 82.596 46.3832C83.3912 46.4103 84.1547 46.7011 84.7665 47.2097C85.3585 47.7112 85.7774 48.3865 85.9635 49.1396C86.1497 49.8928 86.0937 50.6854 85.8036 51.4049C84.8693 54.5168 83.1449 57.3337 80.7984 59.5811C76.033 64.2758 71.1755 68.8762 66.2287 73.3795C65.4838 74.1456 64.5052 74.6422 63.447 74.7911C62.3889 74.9401 61.3112 74.7329 60.3837 74.2022C59.4091 73.6958 58.5792 72.9499 57.9721 72.0347C57.3649 71.1194 57.0004 70.0648 56.9127 68.97Z"
                  fill="#FF87AF"/>
            <path d="M87.8344 71.8015C86.6346 73.0871 85.4004 74.3126 84.2477 75.6282C83.9011 76.1367 83.6136 76.683 83.3907 77.2566C84.0249 77.4451 84.7662 77.9422 85.2804 77.7665C87.8987 76.888 90.4527 75.8339 93.3281 74.724C92.7024 76.1638 92.231 77.4922 91.5668 78.7092C88.8305 83.3078 85.4038 87.4587 81.4066 91.0164C79.8868 92.4819 78.3084 93.8832 76.6715 95.2201C75.8046 95.9395 74.7622 96.4157 73.6509 96.6001C72.5396 96.7844 71.3992 96.6702 70.3465 96.2692C69.2938 95.8681 68.3665 95.1947 67.6595 94.3176C66.9525 93.4406 66.4912 92.3916 66.3227 91.2778C66.254 90.6585 66.3087 90.0317 66.4838 89.4337C66.6589 88.8357 66.9507 88.2784 67.3426 87.7939C73.174 81.4614 79.8384 75.9503 87.1531 71.4115C87.242 71.3771 87.3363 71.3582 87.4316 71.3558L87.8344 71.8015Z"
                  fill="#FF87AF"/>
            <path d="M97.6724 54.7335L105.004 22.1659L110.147 23.37L107.494 31.4305C105.017 38.9296 102.51 46.4287 100.093 53.9364C99.6221 55.3248 99.0051 55.5819 97.6724 54.7335Z"
                  fill="#FF6196"/>
            <path d="M89.3859 73.8885C90.1615 70.9274 90.9328 68.1892 91.5842 65.421C92.219 62.7364 93.4264 60.2207 95.1238 58.0461C96.1651 56.6791 97.3349 57.2234 98.5305 57.519C99.6361 57.789 99.9146 58.5989 99.9618 59.6616C100.136 62.6005 99.2411 65.5031 97.4421 67.8335C95.3003 70.4887 92.5318 72.5695 89.3859 73.8885Z"
                  fill="#FF6196"/>
            <path d="M119.944 3.83936C120.008 2.88498 119.983 1.92674 119.871 0.976845C119.783 0.711516 119.607 0.483621 119.374 0.329779C119.184 0.175101 118.961 0.0652523 118.723 0.00838844C118.585 -0.0173228 118.393 0.124089 118.208 0.325493C118.03 0.516698 117.878 0.731542 117.758 0.96399C117.65 1.37492 117.627 1.80359 117.69 2.22384V21.3873C112.023 21.7895 106.357 20.6022 101.329 17.9591C99.685 17.2161 98.3781 15.8856 97.6646 14.2286C96.951 12.5717 96.8824 10.7079 97.4722 9.00304C98.1107 6.59046 98.8178 4.19932 99.5462 1.81246C99.7177 1.24253 99.8162 0.655454 99.5462 0.321208C99.3961 0.158494 99.1888 0.0602123 98.9677 0.0469556C98.6847 0.0500088 98.4105 0.146413 98.1878 0.321208C97.8674 0.512888 97.6121 0.796593 97.4551 1.1354C96.598 3.70652 95.8438 6.30336 95.1882 8.9259C94.9407 9.95936 94.874 11.0279 94.9911 12.0841C95.1569 13.9952 95.8676 15.8186 97.0389 17.3377C98.2102 18.8569 99.7928 20.0081 101.599 20.6545C102.409 20.993 102.884 21.3273 102.657 22.3943C102.344 23.7484 102.04 25.1026 101.732 26.461C99.632 35.6656 97.5436 44.8745 95.4667 54.0877C95.4082 54.4985 95.2275 54.8822 94.9482 55.189C93.5793 56.2771 92.4291 57.6148 91.5586 59.1314C90.4493 61.1327 89.6817 63.3052 89.2875 65.5592C89.2118 66.2782 88.952 66.9655 88.5331 67.5548C88.1143 68.144 87.5505 68.6153 86.8963 68.9231C85.1094 69.8273 83.4682 70.9971 81.4841 72.2141C81.6164 69.8282 81.5906 67.4361 81.407 65.0535C81.256 64.3206 81.288 63.5618 81.5003 62.8442C81.7126 62.1267 82.0985 61.4725 82.624 60.9397C85.2375 58.3506 87.1005 55.1015 88.0148 51.538C88.2878 50.712 88.3627 49.8333 88.2333 48.9729C88.104 48.1126 87.774 47.2948 87.27 46.5856C86.7661 45.8764 86.1023 45.2957 85.3325 44.8905C84.5626 44.4853 83.7081 44.267 82.8382 44.2531C81.4298 44.2374 80.047 44.6304 78.8573 45.3844C74.7683 48.1767 70.7504 51.0715 66.8073 54.0663C64.4633 55.8318 62.2564 57.7858 59.9852 59.637C59.8873 59.5319 59.8025 59.4154 59.7324 59.2899C59.689 58.9744 59.604 58.6661 59.4796 58.3729C57.5812 55.4418 58.8968 53.3121 60.958 51.1223C63.1053 48.8714 64.2919 45.8727 64.2661 42.7619C64.3327 41.1769 63.8363 39.6194 62.8649 38.3653C62.3474 37.7286 61.7096 37.2001 60.988 36.8097C59.9629 36.2487 58.7908 36.0145 57.6289 36.1386C56.467 36.2627 55.3708 36.7391 54.4873 37.5039L53.2917 38.361C50.5621 40.315 47.7981 42.2177 45.1713 44.3089C41.3364 47.3705 37.5841 50.5341 33.9183 53.7963C32.2042 55.309 30.953 57.3744 29.1746 58.78C19.9014 66.1034 10.5297 73.294 1.1922 80.5317C0.871132 80.7232 0.575909 80.9551 0.313735 81.2216C0.286745 81.2606 0.263774 81.3023 0.245172 81.3459C0.0480521 81.8044 -0.119071 82.5629 0.112331 82.8414C0.169054 82.9019 0.23761 82.95 0.313735 82.9828C0.721934 83.1523 1.17623 83.175 1.5993 83.0471C2.15985 82.7563 2.67399 82.3837 3.12483 81.9415L29.2646 61.6811C29.7317 61.3168 30.2245 60.9869 30.7944 60.5755C30.9476 62.2831 31.5807 63.9125 32.6206 65.2757C33.6604 66.6388 35.0646 67.68 36.671 68.2791C38.2774 68.8782 40.0204 69.0107 41.6989 68.6614C43.3774 68.312 44.9229 67.4951 46.1569 66.3048C49.1565 63.4166 52.2547 60.6141 55.3101 57.773L56.4242 56.7274C58.2926 60.3827 58.104 61.3468 55.2329 63.648C37.5893 77.7663 19.9585 91.8875 2.34064 106.012C1.59073 106.611 0.108046 107.156 1.08079 108.433C2.05353 109.71 2.94914 108.394 3.69476 107.798C20.2242 94.5972 36.7423 81.3787 53.2489 68.1432C53.6774 67.8003 54.1273 67.4961 54.7487 67.0419V68.4303C54.6647 70.0345 55.0599 71.6275 55.8841 73.0064C56.7082 74.3853 57.924 75.4879 59.3767 76.1736C60.8007 76.897 62.4173 77.1503 63.9942 76.897C65.5711 76.6436 67.0271 75.8968 68.1528 74.7638C71.551 71.7642 74.9149 68.7045 78.2959 65.6792C78.5102 65.4863 78.7587 65.3406 79.153 65.0407C79.6367 67.9861 79.542 70.9975 78.8744 73.9068C78.7096 74.2936 78.4394 74.6262 78.0945 74.8667C75.3005 77.2807 72.4966 79.6847 69.6826 82.0787L28.4075 117.115C27.9243 117.437 27.4972 117.836 27.1434 118.297C27.0305 118.507 26.9672 118.741 26.9582 118.979C26.9493 119.217 26.9951 119.455 27.092 119.673C27.2856 119.818 27.5094 119.917 27.7468 119.964C27.9842 120.011 28.2291 120.004 28.4633 119.943C28.648 119.889 28.8181 119.794 28.9603 119.664C29.1746 119.493 29.3889 119.274 29.5817 119.099L59.4196 93.8158C60.8551 92.5988 62.3035 91.399 63.8162 90.1306C63.8928 90.3343 63.9544 90.5434 64.0005 90.7562C64.0861 92.4102 64.6556 94.0027 65.6383 95.3358C66.6211 96.669 67.9737 97.6842 69.5284 98.2553C71.0641 98.9225 72.7662 99.108 74.4096 98.7874C76.053 98.4669 77.5606 97.6552 78.733 96.4598C80.7213 94.6472 82.684 92.8045 84.6552 90.9705C85.9407 89.792 87.1834 88.6093 88.5376 87.3366C88.7898 88.2162 88.9944 89.1089 89.1503 90.0106C89.3473 92.1094 89.0578 94.2253 88.3042 96.1941C87.5506 98.1628 86.3532 99.9313 84.8051 101.362C79.8386 106.71 74.7606 111.942 69.7255 117.217C69.3955 117.56 68.9413 117.843 68.7613 118.25C68.5813 118.657 68.4657 119.454 68.6799 119.626L68.7399 119.664C69.1892 119.883 69.6945 119.959 70.1883 119.883C70.3267 119.854 70.45 119.777 70.5354 119.664C70.6554 119.54 70.7711 119.386 70.8868 119.27C74.9663 115.053 79.0672 110.858 83.1168 106.611C84.7513 104.955 86.288 103.205 87.7191 101.371C89.5851 99.3049 90.8224 96.7492 91.2855 94.0042C91.7486 91.2591 91.4181 88.439 90.3331 85.8754C90.2164 85.3037 90.3304 84.7092 90.6502 84.2213C90.9287 83.7413 91.2372 83.2742 91.5543 82.8114C92.569 81.494 93.4141 80.0544 94.0698 78.5262C95.3368 74.7758 97.2817 71.2898 99.8076 68.2417C100.969 66.7695 101.768 65.0448 102.14 63.207C102.512 61.3692 102.447 59.4696 101.95 57.6616C101.775 56.9741 101.775 56.2535 101.95 55.5661C104.119 48.8512 106.351 42.1577 108.562 35.4599L111.519 26.4867L112.432 23.7142C114.377 23.7142 116.211 23.6756 118.037 23.7142C119.554 23.757 120.017 23.0457 120 21.5715C119.91 15.658 119.944 9.74866 119.944 3.83936ZM43.9371 65.1435C42.9791 66.0304 41.7647 66.591 40.4683 66.745C39.1719 66.8989 37.86 66.6383 36.7208 66.0006C35.587 65.5162 34.631 64.6925 33.9842 63.6429C33.3373 62.5932 33.0314 61.369 33.1084 60.1384C33.2457 58.6271 33.8732 57.202 34.8953 56.0803C41.5388 49.7455 48.7368 44.019 56.4028 38.9695C56.8212 38.6737 57.2972 38.4693 57.7998 38.3696C58.1369 38.3074 58.4825 38.3074 58.8196 38.3696C59.2234 38.4482 59.6086 38.6023 59.9552 38.8238C60.656 39.2588 61.2224 39.8796 61.5916 40.6171C61.9607 41.3547 62.1182 42.1802 62.0464 43.0019C61.9576 45.1413 61.2092 47.2009 59.9038 48.8983C55.237 54.9207 49.878 60.3733 43.9371 65.1435ZM66.2202 73.4097C65.4752 74.1758 64.4966 74.6724 63.4385 74.8213C62.3803 74.9703 61.3027 74.7631 60.3752 74.2324C59.3988 73.7249 58.5678 72.977 57.9605 72.0593C57.3533 71.1416 56.9897 70.0844 56.9042 68.9874C56.8047 68.0401 56.9263 67.0828 57.2594 66.1905C57.5925 65.2982 58.1281 64.4954 58.8239 63.8451C65.3288 57.8454 72.3078 52.3811 79.6929 47.5056C79.9157 47.3642 80.1214 47.2228 80.3657 47.0771C81.0107 46.6114 81.7923 46.3734 82.5875 46.4005C83.3826 46.4277 84.1462 46.7185 84.758 47.2271C85.35 47.7285 85.7688 48.4038 85.955 49.157C86.1412 49.9101 86.0852 50.7028 85.795 51.4223C84.8607 54.5342 83.1364 57.351 80.7899 59.5985C76.0633 64.3208 71.1482 68.8674 66.2288 73.3925L66.2202 73.4097ZM91.5501 78.7276C88.8175 83.319 85.3967 87.4638 81.407 91.0176C79.8872 92.4831 78.3088 93.8844 76.6718 95.2214C75.8049 95.9408 74.7625 96.417 73.6512 96.6013C72.5399 96.7856 71.3996 96.6714 70.3469 96.2704C69.2942 95.8694 68.3669 95.1959 67.6599 94.3189C66.9529 93.4419 66.4915 92.3928 66.323 91.279C66.2543 90.6597 66.3091 90.0329 66.4842 89.435C66.6592 88.837 66.9511 88.2796 67.3429 87.7951C73.1743 81.4627 79.8387 75.9515 87.1534 71.4128C87.2424 71.3783 87.3366 71.3594 87.432 71.3571L87.8605 71.7856C86.6606 73.0712 85.4265 74.2967 84.2738 75.6123C83.9272 76.1208 83.6396 76.6671 83.4167 77.2407C84.0509 77.4292 84.7923 77.9263 85.3065 77.7506C87.3763 77.0564 89.4117 76.2508 91.5929 75.3937L93.3541 74.7081C92.6942 76.1651 92.2228 77.4935 91.5586 78.7105L91.5501 78.7276ZM97.4336 67.8646C95.8352 69.8996 93.8317 71.5806 91.5501 72.8012C90.8444 73.1954 90.1202 73.564 89.3775 73.9068C90.1402 70.9885 90.903 68.2846 91.5501 65.5506L91.5758 65.4392C92.2106 62.7546 93.418 60.2389 95.1153 58.0644C96.1566 56.6974 97.3265 57.2416 98.5221 57.5373C99.6277 57.8073 99.9062 58.6172 99.9533 59.6799C100.129 62.6162 99.2372 65.5171 97.4422 67.8475L97.4336 67.8646ZM107.461 31.4404C104.984 38.9395 102.477 46.4386 100.06 53.9463C99.6062 55.3561 98.9892 55.6132 97.6565 54.7648L104.011 26.5124L104.988 22.1758L110.131 23.3799L109.098 26.5124L107.461 31.4404Z"
                  fill="black"/>
        </g>
        <defs>
            <clipPath id="clip0_1_3263">
            </clipPath>
        </defs>
    </g>

    <g id="typescript">
        <path d="M0 60V120H60H120V60V0H60H0V60Z" fill="#007ACC"/>
        <path d="M26.5374 60.3979L26.4993 65.3122H34.3088H42.1184L42.1184 87.5026V109.693H47.6422H53.166V87.5026L53.166 65.3122H60.9755H68.785V60.4931C68.785 57.8264 68.7279 55.5979 68.6517 55.5407C68.5946 55.4645 59.0898 55.4264 47.566 55.4455L26.5946 55.5026L26.5374 60.3979Z"
              fill="white"/>
        <path d="M96.8264 55.3636C99.874 56.1255 102.198 57.4779 104.331 59.6874C105.436 60.8684 107.074 63.0208 107.207 63.535C107.245 63.6874 102.026 67.1922 98.8644 69.1541C98.7502 69.2303 98.293 68.7351 97.7787 67.9731C96.2359 65.7255 94.6168 64.7541 92.1406 64.5827C88.5025 64.335 86.1597 66.2398 86.1787 69.4208C86.1787 70.3541 86.3121 70.9065 86.693 71.6684C87.493 73.3255 88.9787 74.316 93.6454 76.3351C102.236 80.0303 105.912 82.4684 108.198 85.935C110.75 89.8017 111.322 95.9731 109.588 100.564C107.683 105.554 102.96 108.945 96.3121 110.068C94.2549 110.43 89.3787 110.373 87.1692 109.973C82.3502 109.116 77.7787 106.735 74.9597 103.611C73.8549 102.392 71.7025 99.2112 71.8359 98.9827C71.893 98.9065 72.3883 98.6017 72.9406 98.2779C73.474 97.9731 75.493 96.8112 77.3978 95.7065L80.8454 93.7065L81.5692 94.7731C82.5787 96.316 84.7883 98.4303 86.1216 99.135C89.9502 101.154 95.2073 100.868 97.7978 98.5446C98.9025 97.535 99.3597 96.4874 99.3597 94.9446C99.3597 93.5541 99.1883 92.9446 98.4644 91.897C97.5311 90.5636 95.6263 89.4398 90.2168 87.097C84.0263 84.4303 81.3597 82.7731 78.9216 80.1446C77.5121 78.6208 76.1787 76.1827 75.6264 74.1446C75.1692 72.4493 75.0549 68.2017 75.4168 66.4874C76.693 60.5065 81.2073 56.335 87.7216 55.097C89.8359 54.697 94.7502 54.8493 96.8264 55.3636Z"
              fill="white"/>
    </g>
    <g id="logo">
        <path d="M12 21.5C12 33.3741 31.0457 43 20 43C8.9543 43 0 33.3741 0 21.5C0 9.62588 8.9543 0 20 0C31.0457 0 12 9.62588 12 21.5Z"
              fill="#8773EE"/>
        <path d="M34.7162 21.5C34.7162 33.3741 15.2199 43 26.5269 43C37.8339 43 47 33.3741 47 21.5C47 9.62588 37.8339 0 26.5269 0C15.2199 0 34.7162 9.62588 34.7162 21.5Z"
              fill="#FCDA68"/>
    </g>

    <g id="vscode">
        <path id="Vector"
              d="M101.535 17.605L81.3541 7.88899C80.2144 7.33948 78.932 7.15814 77.6847 7.37011C76.4373 7.58208 75.2868 8.17686 74.3926 9.07199L8.3301 69.3C7.52857 70.0273 7.04878 71.0432 6.99627 72.1243C6.94376 73.2053 7.32283 74.2629 8.0501 75.0645C8.1376 75.159 8.2251 75.25 8.3196 75.334L13.7131 80.234C14.4179 80.8754 15.325 81.2497 16.2771 81.2919C17.2291 81.3341 18.1658 81.0416 18.9246 80.465L98.4971 20.125C99.0981 19.6689 99.8145 19.3897 100.566 19.3186C101.317 19.2476 102.073 19.3877 102.749 19.7231C103.425 20.0585 103.993 20.5758 104.391 21.217C104.789 21.8581 105 22.5975 105 23.352V23.1175C105 21.9656 104.675 20.8372 104.062 19.862C103.449 18.8868 102.573 18.1045 101.535 17.605Z"
              fill="#0065A9"/>
        <path id="Vector_2"
              d="M101.535 94.395L81.3541 104.115C80.2141 104.662 78.9321 104.843 77.6851 104.631C76.4381 104.419 75.2876 103.825 74.3926 102.932L8.3301 42.7C7.52857 41.9727 7.04878 40.9568 6.99627 39.8758C6.94376 38.7947 7.32283 37.7371 8.0501 36.9355C8.1376 36.841 8.2251 36.75 8.3196 36.666L13.7131 31.766C14.4186 31.1219 15.3278 30.7459 16.2822 30.7037C17.2366 30.6615 18.1755 30.9557 18.9351 31.535L98.4971 91.875C99.0981 92.3311 99.8145 92.6104 100.566 92.6814C101.317 92.7524 102.073 92.6123 102.749 92.2769C103.425 91.9415 103.993 91.4242 104.391 90.783C104.789 90.1419 105 89.4025 105 88.648V88.9C104.996 90.0488 104.669 91.1733 104.057 92.1451C103.444 93.1168 102.57 93.8965 101.535 94.395Z"
              fill="#007ACC"/>
        <path id="Vector_3"
              d="M81.3539 104.114C80.2139 104.662 78.9319 104.843 77.6849 104.631C76.4379 104.419 75.2874 103.825 74.3924 102.931C74.895 103.428 75.5329 103.764 76.226 103.899C76.9192 104.034 77.6368 103.962 78.2889 103.691C78.941 103.42 79.4987 102.963 79.892 102.376C80.2853 101.79 80.4968 101.1 80.4999 100.394V11.606C80.5005 10.8965 80.2905 10.2028 79.8965 9.61274C79.5025 9.02271 78.9423 8.56288 78.2867 8.29152C77.6312 8.02016 76.9098 7.94946 76.2141 8.0884C75.5183 8.22734 74.8795 8.56965 74.3784 9.07197C75.2728 8.17717 76.423 7.58235 77.6702 7.3698C78.9173 7.15724 80.1997 7.33744 81.3399 7.88547L101.517 17.5875C102.559 18.0845 103.438 18.8657 104.054 19.8411C104.67 20.8165 104.998 21.9463 105 23.1V88.9C105 90.0528 104.675 91.1822 104.061 92.1581C103.447 93.134 102.571 93.9167 101.531 94.416L81.3539 104.114Z"
              fill="#1F9CF0"/>
    </g>

    <g id="logo">

    </g>

    <g id="instagram" fill="#fff">
        <path d="M 16 3 C 8.83 3 3 8.83 3 16 L 3 34 C 3 41.17 8.83 47 16 47 L 34 47 C 41.17 47 47 41.17 47 34 L 47 16 C 47 8.83 41.17 3 34 3 L 16 3 z M 37 11 C 38.1 11 39 11.9 39 13 C 39 14.1 38.1 15 37 15 C 35.9 15 35 14.1 35 13 C 35 11.9 35.9 11 37 11 z M 25 14 C 31.07 14 36 18.93 36 25 C 36 31.07 31.07 36 25 36 C 18.93 36 14 31.07 14 25 C 14 18.93 18.93 14 25 14 z M 25 16 C 20.04 16 16 20.04 16 25 C 16 29.96 20.04 34 25 34 C 29.96 34 34 29.96 34 25 C 34 20.04 29.96 16 25 16 z"/>
    </g>

    <g id="telegram" fill="#fff">
        <path d="M46.137,6.552c-0.75-0.636-1.928-0.727-3.146-0.238l-0.002,0C41.708,6.828,6.728,21.832,5.304,22.445	c-0.259,0.09-2.521,0.934-2.288,2.814c0.208,1.695,2.026,2.397,2.248,2.478l8.893,3.045c0.59,1.964,2.765,9.21,3.246,10.758	c0.3,0.965,0.789,2.233,1.646,2.494c0.752,0.29,1.5,0.025,1.984-0.355l5.437-5.043l8.777,6.845l0.209,0.125	c0.596,0.264,1.167,0.396,1.712,0.396c0.421,0,0.825-0.079,1.211-0.237c1.315-0.54,1.841-1.793,1.896-1.935l6.556-34.077	C47.231,7.933,46.675,7.007,46.137,6.552z M22,32l-3,8l-3-10l23-17L22,32z"/>
    </g>

    <g id="linkedin" fill="#fff">
        <path d="M41,4H9C6.24,4,4,6.24,4,9v32c0,2.76,2.24,5,5,5h32c2.76,0,5-2.24,5-5V9C46,6.24,43.76,4,41,4z M17,20v19h-6V20H17z M11,14.47c0-1.4,1.2-2.47,3-2.47s2.93,1.07,3,2.47c0,1.4-1.12,2.53-3,2.53C12.2,17,11,15.87,11,14.47z M39,39h-6c0,0,0-9.26,0-10 c0-2-1-4-3.5-4.04h-0.08C27,24.96,26,27.02,26,29c0,0.91,0,10,0,10h-6V20h6v2.56c0,0,1.93-2.56,5.81-2.56 c3.97,0,7.19,2.73,7.19,8.26V39z"/>
    </g>

    <g id="github2">
        <circle cx="24" cy="24" r="20" fill="#f1f1f1"/>
        <path d="M6.81348 34.235C9.24811 38.3138 13.0939 41.4526 17.6772 42.9784C18.6779 43.1614 19.0425 42.5438 19.0425 42.0134C19.0425 41.7938 19.0388 41.4058 19.0339 40.8866C19.0282 40.2852 19.0208 39.5079 19.0155 38.6124C13.4524 39.8206 12.2787 35.931 12.2787 35.931C11.3689 33.6215 10.0576 33.0064 10.0576 33.0064C8.2417 31.7651 10.1951 31.7896 10.1951 31.7896C12.2025 31.9321 13.2584 33.8511 13.2584 33.8511C15.0424 36.9071 17.94 36.0243 19.0794 35.5135C19.2611 34.2207 19.7767 33.3391 20.3489 32.8394C15.908 32.3348 11.2387 30.6183 11.2387 22.9545C11.2387 20.7715 12.0184 18.9863 13.2977 17.5879C13.0914 17.082 12.4051 15.0488 13.4929 12.2949C13.4929 12.2949 15.1725 11.7571 18.9934 14.3453C20.5883 13.9021 22.2998 13.6798 24.0003 13.6725C25.6983 13.6798 27.4099 13.9021 29.0072 14.3453C32.8256 11.7571 34.5016 12.2949 34.5016 12.2949C35.5931 15.0488 34.9067 17.082 34.7005 17.5879C35.9823 18.9863 36.757 20.7715 36.757 22.9545C36.757 30.638 32.0804 32.3286 27.6247 32.8234C28.343 33.441 28.9827 34.6614 28.9827 36.5277C28.9827 38.3152 28.9717 39.8722 28.9644 40.9035C28.9608 41.4143 28.9581 41.7962 28.9581 42.0134C28.9581 42.5487 29.3178 43.1712 30.3332 42.976C33.9844 41.7572 37.1671 39.5154 39.5403 36.5903C35.8734 41.1108 30.274 44 23.9997 44C16.6943 44 10.3038 40.0832 6.81348 34.235Z"
              fill="#111"/>
    </g>
</svg>