
<svg version="1.0" xmlns="http://www.w3.org/2000/svg"
 width="500.000000pt" height="500.000000pt" viewBox="0 0 500.000000 500.000000"
 preserveAspectRatio="xMidYMid meet">

<g transform="translate(0.000000,500.000000) scale(0.100000,-0.100000)"
fill="#000000" stroke="none">
<path d="M334 3803 c17 -157 25 -375 26 -630 l0 -273 273 0 274 0 6 363 c6
321 17 515 32 585 l5 22 -311 0 -312 0 7 -67z"/>
<path d="M1714 3798 c14 -143 25 -437 26 -665 l0 -233 273 0 274 0 7 373 c4
204 12 423 19 485 l12 112 -309 0 -309 0 7 -72z"/>
<path d="M2581 3813 c13 -88 29 -483 29 -710 l0 -203 275 0 275 0 0 283 c1
258 7 421 26 615 l7 72 -310 0 -310 0 8 -57z"/>
<path d="M4281 3832 c-14 -20 -225 -238 -470 -484 l-445 -448 223 0 223 0 -28
38 c-15 20 -49 65 -76 99 -26 35 -48 66 -48 71 0 15 602 605 685 671 123 99
120 91 35 91 l-75 0 -24 -38z"/>
<path d="M360 2383 c0 -238 -8 -428 -26 -611 l-7 -72 309 2 c302 3 309 3 307
23 -17 142 -23 275 -29 568 l-7 347 -274 0 -273 0 0 -257z"/>
<path d="M1740 2408 c-1 -221 -10 -441 -26 -625 l-7 -83 308 0 308 0 -7 83
c-16 184 -25 404 -26 625 l0 232 -275 0 -275 0 0 -232z"/>
<path d="M2610 2418 c-1 -211 -10 -436 -26 -630 l-7 -88 308 0 308 0 -7 67
c-27 261 -36 839 -14 861 9 9 -52 12 -275 12 l-287 0 0 -222z"/>
<path d="M3310 2634 c0 -3 105 -143 233 -312 300 -396 363 -483 400 -559 l31
-63 398 0 c219 0 398 3 398 8 0 4 -19 21 -41 37 -84 61 -191 189 -453 538
l-269 357 -348 0 c-192 0 -349 -3 -349 -6z"/>
</g>
</svg>
