<?xml version="1.0" standalone="no"?>
<!DOCTYPE svg PUBLIC "-//W3C//DTD SVG 20010904//EN"
 "http://www.w3.org/TR/2001/REC-SVG-20010904/DTD/svg10.dtd">
<svg version="1.0" xmlns="http://www.w3.org/2000/svg"
 width="500.000000pt" height="500.000000pt" viewBox="0 0 500.000000 500.000000"
 preserveAspectRatio="xMidYMid meet">

<g transform="translate(0.000000,500.000000) scale(0.100000,-0.100000)"
fill="#000000" stroke="none">
<path d="M745 3398 c10 -62 25 -364 25 -515 l0 -153 195 0 195 0 0 168 c0 162
14 433 25 500 l6 32 -226 0 -226 0 6 -32z"/>
<path d="M1914 3368 c3 -35 9 -192 12 -351 l7 -287 196 2 196 3 6 290 c3 160
10 316 14 348 l8 57 -223 0 -222 0 6 -62z"/>
<path d="M2574 3373 c3 -32 9 -190 12 -350 l7 -293 197 0 197 0 7 303 c4 166
9 323 12 350 l6 47 -222 0 -222 0 6 -57z"/>
<path d="M3928 3383 c-30 -44 -118 -138 -480 -508 -131 -134 -136 -140 -109
-143 26 -3 50 19 222 195 310 317 370 376 447 441 l73 62 -60 0 -60 0 -33 -47z"/>
<path d="M770 2073 c0 -135 -16 -432 -26 -495 l-6 -38 227 0 226 0 -6 33 c-10
62 -25 333 -25 480 l0 147 -195 0 -195 0 0 -127z"/>
<path d="M1926 1933 c-3 -148 -9 -296 -12 -330 l-6 -63 222 0 222 0 -6 43 c-3
23 -9 171 -12 330 l-7 287 -197 0 -197 0 -7 -267z"/>
<path d="M2586 1928 c-3 -150 -9 -299 -12 -330 l-6 -58 222 0 222 0 -6 48 c-3
26 -8 174 -12 330 l-7 282 -197 0 -197 0 -7 -272z"/>
<path d="M3290 2194 c0 -3 78 -104 173 -225 164 -210 252 -331 289 -398 l17
-31 291 0 291 0 -58 48 c-82 69 -126 119 -327 381 l-177 231 -250 0 c-137 0
-249 -3 -249 -6z"/>
</g>
</svg>
