<?xml version="1.0" standalone="no"?>
<!DOCTYPE svg PUBLIC "-//W3C//DTD SVG 20010904//EN"
        "http://www.w3.org/TR/2001/REC-SVG-20010904/DTD/svg10.dtd">
<svg version="1.0" xmlns="http://www.w3.org/2000/svg"
 width="363.000000pt" height="282.000000pt" viewBox="0 0 363.000000 282.000000"
 preserveAspectRatio="xMidYMid meet">

<g transform="translate(0.000000,282.000000) scale(0.100000,-0.100000)"
fill="#0095f6" stroke="none">
<path d="M680 2438 c0 -22 14 -36 43 -43 35 -9 74 -55 87 -103 16 -61 14
-1827 -2 -1877 -11 -34 -22 -44 -70 -69 -104 -52 -88 -56 197 -56 245 0 255 1
255 19 0 11 -9 23 -20 26 -11 4 -28 21 -38 38 -16 30 -17 98 -17 982 0 1023 0
1014 51 1037 15 7 24 20 24 35 l0 23 -255 0 c-197 0 -255 -3 -255 -12z"/>
<path d="M1590 2435 c0 -8 9 -15 20 -15 11 0 20 -4 20 -10 0 -5 12 -10 28 -10
40 -1 108 -35 127 -64 26 -39 16 -119 -25 -203 -38 -79 -141 -231 -217 -320
-29 -34 -53 -65 -53 -68 0 -3 -28 -40 -62 -83 -35 -42 -72 -89 -83 -104 -11
-15 -54 -71 -95 -125 -100 -130 -96 -119 -66 -158 14 -18 26 -36 26 -39 0 -4
24 -39 53 -79 28 -40 57 -80 62 -89 6 -10 31 -48 56 -85 85 -126 144 -213 159
-238 97 -157 234 -328 302 -379 87 -64 119 -70 386 -74 202 -3 242 -1 242 10
0 10 -25 18 -86 26 -142 19 -225 69 -315 189 -21 29 -39 55 -39 57 0 3 -25 38
-56 78 -31 40 -59 80 -62 88 -3 8 -32 49 -64 92 -32 42 -58 80 -58 83 0 3 -27
42 -60 85 -33 43 -60 81 -60 84 0 3 -26 42 -57 85 -72 99 -104 144 -170 240
-48 70 -51 77 -38 96 9 11 27 38 42 60 15 22 46 63 68 90 23 28 55 70 72 95
17 25 52 68 77 97 25 28 46 54 46 58 0 12 172 207 263 296 129 128 244 198
330 199 15 0 27 5 27 10 0 6 11 10 25 10 16 0 25 6 25 15 0 13 -51 15 -395 15
-344 0 -395 -2 -395 -15z"/>
<path d="M2550 2426 c0 -16 7 -27 20 -31 11 -4 28 -21 38 -38 15 -29 17 -75
20 -444 l3 -413 -555 0 c-546 0 -588 -2 -559 -31 6 -6 233 -10 559 -12 l549
-2 3 -485 c1 -291 -2 -506 -8 -540 -7 -41 -17 -62 -40 -82 -62 -57 -56 -58
225 -58 211 0 255 2 255 14 0 8 -21 24 -47 37 -35 17 -54 35 -68 64 -19 39
-20 63 -23 935 -2 613 1 911 8 947 9 39 20 59 46 82 19 17 43 31 53 31 17 0
31 18 31 41 0 5 -107 9 -255 9 l-255 0 0 -24z"/>
</g>
</svg>
